<svg width="29" height="47" viewBox="0 0 29 47" fill="none" xmlns="http://www.w3.org/2000/svg">
<g clip-path="url(#clip0_18_1394)">
<path d="M28.957 23.3208C28.9657 24.0463 28.6521 24.3697 28.2165 24.5882C25.1501 26.1354 22.075 27.665 18.9999 29.2122C17.7716 29.8328 16.5346 30.4447 15.315 31.074C14.7662 31.3537 14.2697 31.3799 13.7035 31.0915C9.40006 28.915 5.07924 26.756 0.767136 24.5882C0.000539434 24.2036 -0.208532 23.5131 0.235745 22.7701C3.276 17.6829 6.31625 12.5957 9.3565 7.50845C10.698 5.26203 12.0396 3.02436 13.3811 0.777936C13.9996 -0.253494 14.9753 -0.262235 15.5938 0.769195C19.9321 8.02417 24.279 15.2704 28.6085 22.5341C28.774 22.8313 28.8873 23.1635 28.957 23.3208ZM13.3376 5.49804C13.294 5.48056 13.2505 5.47182 13.2156 5.45434C10.2189 10.4716 7.21352 15.4889 4.17326 20.5761C4.34749 20.5761 4.38234 20.5849 4.39976 20.5761C7.2048 19.1601 10.0099 17.7441 12.8323 16.3455C13.233 16.1445 13.3724 15.926 13.3724 15.4802C13.355 12.2723 13.3637 9.07308 13.3637 5.86516C13.3637 5.74279 13.3463 5.62041 13.3376 5.49804ZM15.768 5.46308C15.7245 5.47182 15.6809 5.4893 15.6374 5.49804C15.6287 5.59419 15.6025 5.69034 15.6025 5.78649C15.6025 9.07308 15.6112 12.3684 15.6025 15.655C15.6025 15.9872 15.7593 16.1445 16.0294 16.2756C17.8588 17.1847 19.6794 18.1112 21.5088 19.029C22.5542 19.5535 23.5995 20.0692 24.6449 20.5936C24.6797 20.5674 24.7233 20.5324 24.7581 20.5062C21.7614 15.4889 18.7647 10.4804 15.768 5.46308ZM15.6374 28.2944C15.8029 28.2419 15.9161 28.2245 16.012 28.172C18.9738 26.6861 21.9357 25.2001 24.8975 23.7054C24.9846 23.6617 25.0456 23.5568 25.1153 23.4781C25.0369 23.4082 24.9672 23.3121 24.8714 23.2596C21.9269 21.7737 18.9738 20.2964 16.0207 18.8192C15.9161 18.7668 15.7942 18.7406 15.6287 18.6881C15.6374 21.9048 15.6374 25.0515 15.6374 28.2944ZM13.3376 18.6968C13.1721 18.7493 13.0762 18.758 12.9891 18.8017C10.0186 20.2877 7.05671 21.7737 4.09486 23.2684C4.00775 23.3121 3.93806 23.417 3.85966 23.4869C3.93806 23.5655 3.99904 23.6617 4.08615 23.7054C7.03929 25.1914 9.99243 26.6686 12.9456 28.1458C13.0501 28.1982 13.1721 28.2245 13.3376 28.2857C13.3376 25.069 13.3376 21.9135 13.3376 18.6968Z" fill="#B9BEC0"/>
<path d="M1.1586 26.8084C1.33283 26.8696 1.55932 26.9221 1.7684 27.027C5.58395 28.9325 9.3908 30.8468 13.1976 32.7698C14.5043 33.4341 14.4869 33.4253 15.8023 32.761C19.6092 30.838 23.416 28.9325 27.2316 27.0182C27.8501 26.7036 28.3902 26.8084 28.7561 27.2805C29.1132 27.7262 29.0871 28.2245 28.6602 28.8014C25.3499 33.2155 22.0483 37.6385 18.7467 42.0614C17.6927 43.4686 16.6473 44.8759 15.5845 46.2832C14.8702 47.236 14.1036 47.2447 13.4067 46.3007C9.05106 40.4705 4.68669 34.6491 0.33974 28.8101C-0.26134 28.006 -0.026135 27.1144 0.853708 26.8609C0.93211 26.8434 1.01922 26.8347 1.1586 26.8084ZM13.2064 42.2624C13.2499 42.2362 13.3022 42.2187 13.3457 42.1925C13.3544 42.0614 13.3632 41.939 13.3632 41.8079C13.3632 39.8586 13.3457 37.9094 13.3719 35.9602C13.3806 35.5319 13.2325 35.2959 12.8666 35.1123C10.4187 33.8973 7.97085 32.6736 5.52297 31.4499C5.41844 31.3974 5.30519 31.3887 5.19194 31.3537C5.16581 31.3887 5.14839 31.4237 5.12225 31.4586C7.82276 35.0599 10.5146 38.6611 13.2064 42.2624ZM23.8429 31.4674C23.8167 31.4324 23.7906 31.4062 23.7645 31.3712C23.6861 31.3887 23.599 31.3887 23.5206 31.4237C21.0204 32.6736 18.529 33.9236 16.0288 35.1735C15.7152 35.3308 15.5933 35.5231 15.602 35.8815C15.6194 37.8745 15.6107 39.8674 15.6107 41.8603C15.6107 41.9827 15.6368 42.0963 15.6455 42.2187C15.6891 42.2362 15.7239 42.2537 15.7675 42.2624C18.4593 38.6611 21.1511 35.0686 23.8429 31.4674Z" fill="#B9BEC0"/>
</g>
<defs>
<clipPath id="clip0_18_1394">
<rect width="29" height="47" fill="white"/>
</clipPath>
</defs>
</svg>
